<?xml version="1.0" standalone="no"?>
<!DOCTYPE svg PUBLIC "-//W3C//DTD SVG 20010904//EN"
 "http://www.w3.org/TR/2001/REC-SVG-20010904/DTD/svg10.dtd">
<svg version="1.0" xmlns="http://www.w3.org/2000/svg"
 width="50.000000pt" height="50.000000pt" viewBox="0 0 500.000000 500.000000"
 preserveAspectRatio="xMidYMid meet">

<g transform="translate(0.000000,500.000000) scale(0.100000,-0.100000)"
fill="#000000" stroke="none">
<path d="M1612 3870 c-43 -34 -62 -58 -62 -76 0 -3 12 -9 26 -14 22 -9 36 -4
101 37 78 48 96 69 72 84 -34 21 -86 10 -137 -31z"/>
<path d="M1908 3887 c-20 -12 -50 -32 -67 -45 -17 -13 -31 -19 -31 -14 0 6 -9
8 -20 5 -16 -4 -18 -9 -10 -24 6 -10 17 -16 24 -13 8 3 17 1 20 -4 3 -6 15 -8
26 -5 21 5 28 -11 10 -22 -5 -3 -10 -1 -10 4 0 6 -17 1 -37 -10 l-38 -21 19
21 c20 22 20 22 0 15 -10 -4 -24 -13 -31 -21 -9 -11 -16 -12 -32 -3 -12 6 -19
15 -17 19 3 4 0 8 -7 8 -7 0 -12 -10 -12 -22 0 -13 6 -22 14 -21 8 1 16 -6 18
-14 3 -9 1 -11 -4 -5 -8 11 -52 15 -51 6 2 -19 -4 -24 -12 -11 -6 9 -10 10
-10 3 0 -17 23 -29 28 -15 2 7 8 12 13 12 4 0 6 -7 2 -15 -3 -10 -1 -15 7 -13
7 2 15 -3 17 -9 3 -8 -3 -13 -15 -13 -11 0 -25 -7 -32 -15 -7 -8 -17 -12 -24
-8 -6 4 -4 -1 4 -11 13 -17 14 -17 20 0 5 12 9 14 14 6 4 -7 12 -12 19 -12 6
0 3 6 -6 13 -15 11 -14 12 13 13 16 1 27 -2 25 -7 -3 -4 7 -4 22 0 15 4 52 3
83 -2 30 -5 61 -9 68 -10 6 0 12 -4 12 -8 0 -4 18 -18 40 -30 42 -24 53 -41
21 -32 -11 3 -21 -2 -24 -11 -5 -13 -23 -16 -84 -16 -43 0 -96 -5 -118 -10
-25 -6 -44 -5 -49 0 -6 6 -19 10 -30 10 -20 1 -20 1 -3 14 41 32 -7 70 -78 61
-25 -4 -41 -1 -47 7 -6 10 -8 9 -8 -3 0 -18 -20 -29 -53 -29 -27 0 -127 -35
-189 -65 -24 -12 -28 -12 -28 1 0 53 -160 25 -280 -49 -19 -12 -45 -23 -57
-25 -35 -4 -18 36 37 88 83 78 124 159 87 173 -25 10 -117 -45 -183 -108 -36
-35 -63 -57 -60 -48 5 11 2 14 -11 9 -16 -5 -16 -4 -3 7 8 7 20 21 26 32 5 11
21 38 34 59 l24 39 -25 -6 c-13 -4 -78 -17 -144 -28 -165 -29 -222 -23 -340
36 -101 51 -121 53 -185 24 -82 -37 -134 -101 -169 -209 -17 -51 -21 -89 -21
-194 0 -125 1 -132 22 -141 12 -6 39 -44 62 -90 57 -113 85 -155 99 -150 25
10 42 -14 40 -57 -2 -52 31 -122 65 -137 31 -15 32 -14 32 9 0 11 5 20 10 20
6 0 10 -51 10 -133 0 -124 -2 -140 -30 -217 -38 -106 -38 -119 3 -50 57 99 92
150 101 150 4 0 4 -6 -2 -13 -15 -17 -52 -138 -46 -148 2 -4 -8 -21 -22 -38
-27 -32 -50 -99 -64 -186 -29 -172 19 -380 124 -538 132 -199 442 -467 706
-611 140 -76 344 -139 501 -156 80 -8 106 -6 189 11 111 25 279 85 367 134
l63 35 14 -23 c7 -12 32 -53 54 -92 46 -79 119 -154 207 -212 128 -84 235
-109 430 -100 329 17 486 100 540 286 5 15 4 21 -4 17 -20 -13 -191 22 -254
52 -52 24 -140 92 -119 92 3 0 -9 12 -27 28 -19 15 -43 35 -54 44 -11 10 -36
18 -57 18 -21 0 -43 6 -49 14 -10 12 -7 18 19 31 89 46 277 58 405 25 117 -30
150 -26 106 14 -11 10 -25 40 -31 66 -7 27 -17 53 -23 59 -7 5 -50 15 -97 21
-108 15 -230 5 -285 -22 -46 -24 -168 -33 -184 -14 -10 11 -14 104 -11 246 l1
75 15 -40 c8 -22 12 -45 10 -52 -3 -7 -1 -15 5 -18 9 -6 5 -104 -7 -167 -3
-14 -2 -28 3 -31 4 -2 49 6 98 18 78 20 85 23 48 24 -23 1 -44 5 -47 10 -3 4
89 6 204 4 l209 -4 27 53 c36 72 45 83 56 66 5 -8 6 11 2 47 -3 33 -8 62 -10
64 -8 9 -33 -23 -63 -81 -43 -83 -58 -98 -95 -98 l-31 -1 34 -15 c19 -8 32
-16 30 -18 -6 -6 -142 19 -157 28 -7 4 -12 13 -12 19 0 7 -16 62 -35 122 -20
61 -42 142 -49 180 -8 39 -17 77 -21 87 -11 27 105 46 251 39 114 -6 123 -8
143 -31 11 -14 20 -28 21 -33 0 -4 11 -25 25 -47 25 -40 32 -70 16 -70 -5 0
-16 -11 -25 -25 l-16 -24 33 19 c52 31 76 58 101 114 13 29 37 72 55 96 30 42
58 117 47 127 -3 3 -10 -5 -15 -19 -5 -14 -17 -28 -25 -31 -22 -9 -20 -28 2
-20 14 5 13 3 -3 -10 -18 -14 -21 -13 -37 11 -9 14 -20 46 -23 71 -4 25 -14
60 -23 77 -25 47 -70 111 -82 119 -14 9 -9 24 58 180 55 131 75 165 97 165 6
0 25 15 42 33 28 29 31 37 27 89 -4 66 -20 134 -34 143 -5 3 -19 1 -31 -5 -16
-9 -24 -8 -38 4 -16 15 -22 14 -67 -8 -67 -32 -94 -40 -94 -27 0 6 -5 11 -11
11 -5 0 -7 -4 -4 -10 13 -21 -44 -9 -104 22 -61 31 -62 31 -124 18 -70 -15
-143 -15 -181 0 -14 5 -26 6 -26 1 0 -4 -12 -6 -26 -3 -27 5 -44 -10 -44 -40
0 -35 131 -153 239 -214 168 -94 273 -220 274 -326 0 -55 -49 -111 -120 -138
-72 -27 -88 -21 -38 14 l40 28 -54 -7 c-36 -5 -61 -3 -77 6 -19 10 -31 10 -63
-1 -23 -7 -51 -10 -68 -5 -15 4 -58 6 -95 5 -37 -1 -69 3 -73 9 -3 6 -16 12
-28 12 -20 1 -21 2 -2 6 11 3 25 9 31 14 6 5 45 4 90 -2 43 -6 111 -13 149
-15 66 -4 69 -4 45 10 -25 16 -25 16 10 10 19 -3 41 -7 48 -10 6 -2 12 3 12
11 0 8 -8 15 -18 15 -10 0 -22 3 -26 7 -4 5 -16 9 -27 9 -32 2 -35 4 -19 14 8
5 27 10 42 10 26 0 46 16 34 27 -3 3 -24 7 -46 9 -22 2 -44 5 -49 9 -5 3 -13
0 -17 -6 -4 -8 -9 -7 -15 2 -13 21 -11 25 17 37 82 38 -80 40 -178 2 -32 -12
-77 -20 -113 -20 -34 0 -66 -5 -72 -11 -9 -9 -23 -9 -57 1 -36 10 -62 10 -127
1 -44 -7 -82 -11 -84 -9 -1 2 13 18 32 36 24 24 35 29 39 19 4 -11 16 -12 52
-6 26 4 86 12 134 18 48 7 95 14 103 17 17 7 21 64 4 64 -5 0 -8 4 -5 8 2 4
-11 9 -30 10 -27 2 -41 -4 -64 -28 -34 -35 -56 -36 -77 -4 -12 19 -11 24 12
45 13 13 25 28 25 33 0 5 -3 6 -6 3 -4 -3 -15 -2 -26 4 -25 13 -44 1 -23 -15
14 -10 15 -14 3 -24 -15 -12 -44 -1 -113 43 l-30 19 18 -20 c9 -11 17 -25 17
-30 0 -5 -5 -1 -11 9 -5 9 -16 17 -24 17 -7 0 -20 13 -28 29 l-15 29 44 17
c30 11 41 21 37 31 -4 10 2 14 21 14 26 0 26 1 12 22 -25 36 -21 49 11 33 19
-10 32 -11 46 -3 16 8 19 7 15 -3 -8 -21 102 -24 128 -4 18 14 18 14 -6 15
-52 1 -57 15 -17 59 20 23 37 47 37 55 0 26 60 76 88 75 42 -2 225 11 247 18
11 3 28 14 39 25 15 17 16 22 5 29 -8 5 -10 9 -5 9 5 0 4 6 -1 13 -21 25 -22
57 -3 67 31 17 71 11 142 -19 38 -16 70 -25 73 -20 3 4 -5 11 -19 15 -14 3
-28 15 -32 26 -4 13 -12 18 -24 15 -11 -3 -27 1 -37 9 -17 13 -17 14 2 8 16
-5 17 -4 5 4 -10 8 -18 8 -27 0 -7 -6 -13 -6 -13 -2 0 11 -54 36 -72 33 -34
-4 -39 1 -21 25 17 22 50 26 36 3 -3 -6 -1 -7 6 -3 16 10 -6 38 -27 34 -8 -2
-30 12 -49 31 -28 28 -36 32 -44 20 -7 -12 -9 -11 -9 2 0 18 -26 34 -49 30 -7
-1 -11 3 -9 10 6 18 -41 61 -69 63 -12 0 -23 6 -23 11 0 6 -4 4 -9 -3 -7 -11
-11 -11 -24 2 -8 9 -20 16 -26 16 -6 0 -11 6 -11 14 0 15 -21 26 -48 26 -13 0
-14 -2 -4 -9 19 -12 -12 -34 -37 -26 -11 3 -57 49 -103 102 -110 126 -157 158
-358 234 -143 54 -219 96 -226 124 -5 21 -10 23 -37 18 -18 -3 -43 -12 -56
-20 -20 -13 -25 -13 -32 -2 -7 11 -9 11 -9 1 0 -7 -5 -10 -11 -6 -8 4 2 14 24
26 37 18 55 53 43 83 -7 21 -24 19 -68 -8z m-1049 -460 c-2 -1 -13 -9 -24 -17
-19 -14 -19 -14 -6 3 7 9 18 17 24 17 6 0 8 -1 6 -3z m-66 -41 c7 4 5 1 -3 -7
-8 -8 -20 -21 -28 -29 -7 -8 -11 -9 -7 -2 3 6 2 12 -3 12 -6 0 -12 7 -16 15
-4 13 -2 14 14 5 11 -6 20 -7 19 -3 -3 16 3 28 8 15 2 -6 10 -9 16 -6z m1013
-110 c20 -19 35 -37 35 -40 -3 -21 2 -26 26 -26 25 0 25 1 9 13 -15 11 -16 15
-4 19 8 3 23 1 35 -6 16 -9 19 -16 12 -35 -8 -20 -15 -23 -49 -19 -57 5 -55
-12 3 -26 25 -6 34 -1 66 34 20 22 39 40 43 40 8 0 -16 -68 -29 -81 -8 -8 -36
-9 -83 -4 -61 6 -73 10 -82 30 -6 13 -19 25 -29 28 -23 6 -35 52 -20 83 14 32
25 30 67 -10z m-215 -6 c24 -18 27 -26 22 -51 -3 -16 -2 -29 3 -28 21 5 65
-14 60 -27 -10 -27 209 -85 233 -61 15 15 221 14 248 -1 16 -9 21 -19 18 -39
-2 -16 -4 -31 -4 -35 -1 -5 -10 -17 -21 -28 -17 -17 -24 -18 -42 -9 -11 6 -75
13 -142 14 -89 3 -147 10 -221 29 -112 29 -137 44 -180 105 -23 33 -30 52 -28
87 1 42 8 64 20 64 2 0 18 -9 34 -20z m-921 0 c0 -5 -4 -10 -10 -10 -5 0 -10
-7 -10 -15 0 -10 -10 -15 -31 -15 -17 0 -40 -5 -52 -12 -20 -10 -21 -10 -8 5
7 10 10 17 5 18 -5 0 4 7 21 14 25 11 31 11 43 -4 7 -9 10 -10 6 -2 -3 7 0 17
7 22 19 12 29 11 29 -1z m1685 -10 c4 -6 2 -17 -4 -24 -6 -7 -7 -17 -3 -21 4
-5 1 -5 -5 -1 -7 4 -12 18 -11 31 2 26 12 32 23 15z m622 -16 c-3 -4 3 -14 14
-23 l21 -17 -21 -1 c-12 -1 -19 2 -16 8 4 5 -1 12 -10 15 -13 6 -14 8 -3 15
15 10 24 12 15 3z m68 -73 c-3 -6 5 -15 17 -22 13 -7 26 -16 29 -22 11 -15 29
2 22 21 -4 13 -2 13 10 -3 8 -11 13 -23 11 -27 -8 -13 -38 -9 -60 7 -12 8 -24
11 -28 8 -3 -3 -6 1 -6 10 0 10 -6 17 -12 17 -9 0 -8 4 2 10 19 12 23 12 15 1z
m55 -12 c0 -14 -27 -10 -33 5 -4 10 0 12 14 9 10 -3 19 -9 19 -14z m-345 -409
c-10 -19 -23 -30 -37 -30 -21 0 -20 1 7 30 16 17 33 30 37 30 5 0 2 -13 -7
-30z m-302 -186 c1 -10 6 -25 11 -32 9 -15 -30 -51 -56 -52 -9 0 -19 -9 -23
-19 -3 -11 -12 -25 -20 -31 -12 -10 -15 -9 -15 3 0 9 20 36 45 60 32 32 45 53
45 73 0 30 8 29 13 -2z m74 -147 c12 -12 11 -14 -4 -14 -10 0 -23 6 -30 12
-13 14 -59 9 -83 -9 -8 -6 -6 0 5 13 16 19 27 22 59 18 21 -3 45 -12 53 -20z
m186 -64 c-7 -2 -19 -2 -25 0 -7 3 -2 5 12 5 14 0 19 -2 13 -5z m364 -80 c7
-14 10 -30 7 -34 -10 -17 -43 -9 -49 11 -6 18 -13 20 -60 17 -29 -3 -58 -8
-64 -11 -6 -4 -21 0 -33 8 -22 16 -21 16 22 17 25 0 65 4 90 8 73 11 75 11 87
-16z m-287 -134 c0 -5 -6 -9 -14 -9 -8 0 -21 -3 -30 -6 -10 -4 -16 -1 -16 9 0
16 26 26 48 19 6 -2 12 -8 12 -13z m590 -864 c0 -5 -5 -3 -10 5 -5 8 -10 20
-10 25 0 6 5 3 10 -5 5 -8 10 -19 10 -25z"/>
<path d="M1415 3881 c-46 -15 -111 -56 -157 -99 -53 -50 -50 -64 11 -55 54 9
79 24 156 97 68 64 69 66 40 65 -16 -1 -39 -4 -50 -8z"/>
<path d="M1730 3769 c0 -5 5 -7 10 -4 6 3 10 8 10 11 0 2 -4 4 -10 4 -5 0 -10
-5 -10 -11z"/>
<path d="M1600 3748 c0 -8 12 -15 27 -16 29 -2 29 0 -4 17 -18 9 -23 9 -23 -1z"/>
<path d="M2980 3595 c0 -21 -24 -29 -48 -16 -17 9 -20 7 -25 -17 -3 -15 0 -33
5 -40 6 -7 8 -15 5 -19 -4 -3 -2 -12 5 -20 8 -10 8 -12 -4 -8 -11 5 -17 -2
-20 -24 -2 -17 -3 -29 0 -27 2 3 15 -7 29 -22 14 -15 26 -25 26 -23 5 12 58
-35 63 -55 10 -39 86 -99 188 -148 100 -47 125 -56 93 -31 -17 12 -17 17 -6
49 12 32 11 41 -9 81 -18 36 -32 50 -77 72 -30 15 -54 32 -52 38 2 5 -14 29
-35 53 -22 24 -50 66 -63 93 -29 63 -75 102 -75 64z"/>
<path d="M2800 3465 c0 -8 4 -15 9 -15 5 0 11 -10 14 -22 4 -13 13 -32 21 -43
14 -19 15 -19 9 5 -7 25 -42 90 -49 90 -2 0 -4 -7 -4 -15z"/>
<path d="M2750 3442 c0 -4 9 -13 21 -20 18 -11 19 -16 7 -30 -12 -15 -11 -16
5 -3 10 8 17 9 17 3 0 -6 7 -9 15 -6 12 5 13 10 4 20 -6 8 -15 12 -19 9 -5 -3
-11 -1 -15 5 -3 5 0 10 7 10 9 0 9 3 -2 10 -18 12 -40 13 -40 2z"/>
<path d="M2600 2594 c0 -8 5 -12 10 -9 6 3 10 10 10 16 0 5 -4 9 -10 9 -5 0
-10 -7 -10 -16z"/>
<path d="M2810 2595 c0 -8 5 -15 11 -15 6 0 9 -6 7 -12 -7 -19 27 -50 49 -46
11 2 19 13 21 28 2 21 -4 29 -36 43 -47 21 -52 21 -52 2z"/>
<path d="M2726 2576 c-8 -31 -7 -56 3 -56 5 0 13 17 18 38 8 30 7 39 -3 39 -7
0 -15 -10 -18 -21z"/>
<path d="M2584 2555 c-8 -20 2 -44 21 -51 17 -7 55 22 55 40 0 6 -7 3 -14 -6
-12 -16 -14 -16 -24 7 -13 28 -30 32 -38 10z"/>
<path d="M2505 2530 c3 -5 8 -10 11 -10 2 0 4 5 4 10 0 6 -5 10 -11 10 -5 0
-7 -4 -4 -10z"/>
<path d="M2878 2416 c-8 -41 2 -44 85 -25 86 21 132 41 87 38 -14 -1 -27 0
-30 0 -3 1 -35 4 -71 7 -65 5 -67 4 -71 -20z"/>
<path d="M3388 1410 c-21 -31 -24 -40 -12 -44 9 -3 14 1 14 12 0 10 7 28 16
40 9 13 14 25 13 27 -2 1 -16 -14 -31 -35z"/>
</g>
</svg>
